<?xml version="1.0" encoding="UTF-8" standalone="no"?><!DOCTYPE svg PUBLIC "-//W3C//DTD SVG 1.1//EN" "http://www.w3.org/Graphics/SVG/1.1/DTD/svg11.dtd"><svg width="100%" height="100%" viewBox="0 0 120 120" version="1.1" xmlns="http://www.w3.org/2000/svg" xmlns:xlink="http://www.w3.org/1999/xlink" xml:space="preserve" xmlns:serif="http://www.serif.com/" style="fill-rule:evenodd;clip-rule:evenodd;stroke-linecap:round;stroke-linejoin:round;"><g><path d="M40,13.6l0,14.4l3,5.75" style="fill:none;fill-rule:nonzero;stroke:#000;stroke-width:2.4px;"/><path d="M60,13.6l0,26.4" style="fill:none;fill-rule:nonzero;stroke:#000;stroke-width:2.4px;"/><path d="M80,13.6l0,14.4l-3,5.75" style="fill:none;fill-rule:nonzero;stroke:#000;stroke-width:2.4px;"/><path d="M30,28.6l0,2.4l2.356,2.75" style="fill:none;fill-rule:nonzero;stroke:#000;stroke-width:2.4px;"/><path d="M90,28.6l0,2.4l-2.227,2.75" style="fill:none;fill-rule:nonzero;stroke:#000;stroke-width:2.4px;"/><path d="M40,106.4l0,-10.4l10.069,-12.069" style="fill:none;fill-rule:nonzero;stroke:#000;stroke-width:2.4px;"/><path d="M60,106.4l0,-19.4" style="fill:none;fill-rule:nonzero;stroke:#000;stroke-width:2.4px;"/><path d="M80,105.393l0,-9.393l-9.813,-12.069" style="fill:none;fill-rule:nonzero;stroke:#000;stroke-width:2.4px;"/><path d="M30,91.4l0,-3.4l15.035,-5.29" style="fill:none;fill-rule:nonzero;stroke:#000;stroke-width:2.4px;"/><path d="M90,91.4l0,-3.4l-15.419,-5.425" style="fill:none;fill-rule:nonzero;stroke:#000;stroke-width:2.4px;"/><path d="M13.705,39.885l8.295,0.115l4,-3" style="fill:none;fill-rule:nonzero;stroke:#000;stroke-width:2.4px;"/><path d="M13.705,58l12.295,0" style="fill:none;fill-rule:nonzero;stroke:#000;stroke-width:2.4px;"/><path d="M13.6,76l8.4,0l4,3" style="fill:none;fill-rule:nonzero;stroke:#000;stroke-width:2.4px;"/><path d="M106.4,40l-8.4,0l-4,-3" style="fill:none;fill-rule:nonzero;stroke:#000;stroke-width:2.4px;"/><path d="M106.4,58l-12.4,0" style="fill:none;fill-rule:nonzero;stroke:#000;stroke-width:2.4px;"/><path d="M106.4,76l-8.4,0l-4,3" style="fill:none;fill-rule:nonzero;stroke:#000;stroke-width:2.4px;"/></g><path d="M60,40c-8,-5 -18,-7 -34,-6l0,48c16,-1 26,1 34,5" style="fill:none;fill-rule:nonzero;stroke:#000;stroke-width:3.2px;"/><path d="M60,40c8,-5 18,-7 34,-6l0,48c-16,-1 -26,1 -34,5" style="fill:none;fill-rule:nonzero;stroke:#000;stroke-width:3.2px;"/><path d="M60,40l0,47" style="fill:none;fill-rule:nonzero;stroke:#000;stroke-width:3.2px;"/><g><path d="M31.7,48c7.267,-1.333 14.667,-1.333 22.2,0" style="fill:none;fill-rule:nonzero;stroke:#000;stroke-width:1.8px;"/><path d="M31.7,58c7.267,-1.333 14.667,-1.333 22.2,0" style="fill:none;fill-rule:nonzero;stroke:#000;stroke-width:1.8px;"/><path d="M31.7,67c7.267,-1.333 14.667,-1.333 22.2,0" style="fill:none;fill-rule:nonzero;stroke:#000;stroke-width:1.8px;"/><path d="M66.1,48c7.533,-1.333 14.933,-1.333 22.2,0" style="fill:none;fill-rule:nonzero;stroke:#000;stroke-width:1.8px;"/><path d="M66.1,58c7.533,-1.333 14.933,-1.333 22.2,0" style="fill:none;fill-rule:nonzero;stroke:#000;stroke-width:1.8px;"/><path d="M66.1,67c7.533,-1.333 14.933,-1.333 22.2,0" style="fill:none;fill-rule:nonzero;stroke:#000;stroke-width:1.8px;"/></g><g><circle cx="40" cy="9" r="4.6" style="fill:none;stroke:#000;stroke-width:2.4px;"/><circle cx="60" cy="9" r="4.6" style="fill:none;stroke:#000;stroke-width:2.4px;"/><circle cx="80" cy="9" r="4.6" style="fill:none;stroke:#000;stroke-width:2.4px;"/><circle cx="30" cy="24" r="4.6" style="fill:none;stroke:#000;stroke-width:2.4px;"/><circle cx="90" cy="24" r="4.6" style="fill:none;stroke:#000;stroke-width:2.4px;"/><circle cx="40" cy="111" r="4.6" style="fill:none;stroke:#000;stroke-width:2.4px;"/><circle cx="60" cy="111" r="4.6" style="fill:none;stroke:#000;stroke-width:2.4px;"/><circle cx="80" cy="111" r="4.6" style="fill:none;stroke:#000;stroke-width:2.4px;"/><circle cx="30" cy="96" r="4.6" style="fill:none;stroke:#000;stroke-width:2.4px;"/><circle cx="90" cy="96" r="4.6" style="fill:none;stroke:#000;stroke-width:2.4px;"/><circle cx="9" cy="40" r="4.6" style="fill:none;stroke:#000;stroke-width:2.4px;"/><circle cx="9" cy="58" r="4.6" style="fill:none;stroke:#000;stroke-width:2.4px;"/><circle cx="9" cy="76" r="4.6" style="fill:none;stroke:#000;stroke-width:2.4px;"/><circle cx="111" cy="40" r="4.6" style="fill:none;stroke:#000;stroke-width:2.4px;"/><circle cx="111" cy="58" r="4.6" style="fill:none;stroke:#000;stroke-width:2.4px;"/><circle cx="111" cy="76" r="4.6" style="fill:none;stroke:#000;stroke-width:2.4px;"/></g></svg>