<svg xmlns="http://www.w3.org/2000/svg" xml:space="preserve" viewBox="0 0 52 52"><path d="M8.1 6.5a4.9 4.9 0 0 0-4.9 4.9v29.3c0 2.7 2.2 4.9 4.9 4.9h11.4c2.7 0 5-1.3 6.5-3.3 1.5 2 3.8 3.3 6.5 3.3h11.4c2.7 0 4.9-2.2 4.9-4.9V11.4c0-2.7-2.2-4.9-4.9-4.9H32.5c-2.7 0-5 1.3-6.5 3.3-1.5-2-3.8-3.3-6.5-3.3zm16.3 8.1v22.8c0 2.7-2.2 4.9-4.9 4.9H8.1c-.9 0-1.6-.7-1.6-1.6V11.4c0-.9.7-1.6 1.6-1.6h11.4c2.7 0 4.9 2.1 4.9 4.8m3.2 22.8V14.6c0-2.7 2.2-4.9 4.9-4.9h11.4c.9 0 1.6.7 1.6 1.6v29.3c0 .9-.7 1.6-1.6 1.6H32.5c-2.7.1-4.9-2.1-4.9-4.8"/><path fill-rule="evenodd" d="M8.1 6.5a4.9 4.9 0 0 0-4.9 4.9v29.3c0 2.7 2.2 4.9 4.9 4.9h11.4c2.7 0 5-1.3 6.5-3.2 1.5 2 3.8 3.2 6.5 3.2h11.4c2.7 0 4.9-2.2 4.9-4.9V11.4c0-2.7-2.2-4.9-4.9-4.9H32.5c-2.7 0-5 1.3-6.5 3.2-1.5-2-3.8-3.2-6.5-3.2zm16.3 8.1v22.8c0 2.7-2.2 4.9-4.9 4.9H8.1c-.9 0-1.6-.7-1.6-1.6V11.4c0-.9.7-1.6 1.6-1.6h11.4c2.7 0 4.9 2.1 4.9 4.8m3.2 22.8V14.6c0-2.7 2.2-4.9 4.9-4.9h11.4c.9 0 1.6.7 1.6 1.6v29.3c0 .9-.7 1.6-1.6 1.6H32.5c-2.7.1-4.9-2.1-4.9-4.8" clip-rule="evenodd"/><path d="m14.6 7.6-2.1-4.2H8.3" class="st1"/><circle cx="8.2" cy="3.3" r="2.2" class="st3"/><path d="M37.9 7.6 40 3.4h4.2" class="st1"/><circle cx="44.3" cy="3.3" r="2.2" class="st3"/><path d="m14.5 44.4-2.1 4.2H8.2" class="st1"/><circle cx="8.1" cy="48.6" r="2.2" class="st3"/><path d="m37.8 44.4 2.1 4.2h4.2" class="st1"/><circle cx="44.3" cy="48.6" r="2.2" class="st3"/></svg>