<?xml version="1.0" encoding="UTF-8" standalone="no"?><!DOCTYPE svg PUBLIC "-//W3C//DTD SVG 1.1//EN" "http://www.w3.org/Graphics/SVG/1.1/DTD/svg11.dtd"><svg width="100%" height="100%" viewBox="0 0 62 62" version="1.1" xmlns="http://www.w3.org/2000/svg" xmlns:xlink="http://www.w3.org/1999/xlink" xml:space="preserve" xmlns:serif="http://www.serif.com/" style="fill-rule:evenodd;clip-rule:evenodd;stroke-linejoin:round;stroke-miterlimit:2;"><g><path d="M29.173,19.84c0,0 -5.766,-13.437 -25.446,2.004l-0.215,2.936c0,0 13.282,-14.264 25.661,-4.94Z" style="fill:#414042;fill-rule:nonzero;"/><path d="M3.576,25.887l-3.507,27.997c0,0 11.355,-19.785 30.488,-4.542c0,0 -14.468,-17.278 -27.93,-2.54l0.949,-20.915Z" style="fill:#414042;fill-rule:nonzero;"/><path d="M1.984,53.599l-0.298,4.065c0,0 10.026,-15.566 29.034,-7.23c0,0 -14.406,-12.82 -28.736,3.164Z" style="fill:#414042;fill-rule:nonzero;"/></g><g><path d="M32.267,19.84c0,0 5.766,-13.437 25.446,2.004l0.215,2.936c0,0 -13.282,-14.264 -25.661,-4.94Z" style="fill:#414042;fill-rule:nonzero;"/><path d="M57.864,25.887l3.507,27.997c0,0 -11.355,-19.785 -30.488,-4.542c0,0 14.468,-17.278 27.93,-2.54l-0.949,-20.915Z" style="fill:#414042;fill-rule:nonzero;"/><path d="M59.456,53.599l0.298,4.065c0,0 -10.026,-15.566 -29.034,-7.23c0,0 14.406,-12.82 28.736,3.164Z" style="fill:#414042;fill-rule:nonzero;"/></g><g><g><path d="M31.095,26.604l-2.884,8.984l5.436,1.387l3.003,-8.954l-5.555,-1.418Z" style="fill:#414042;fill-rule:nonzero;"/><path d="M13.312,33.524l-0.159,-0.233l6.26,-4.179l0.177,0.232l-6.278,4.18Zm7.103,-4.957l-0.647,-0.834l-0.426,0.589c-0.114,0.157 -0.117,0.369 -0.009,0.53l-6.55,4.399l0.41,0.61l6.55,-4.399c0.108,0.161 0.305,0.238 0.494,0.192l0.707,-0.172l-0.527,-0.915Z" style="fill:#414042;fill-rule:nonzero;"/><path d="M19.665,27.092c-0.029,-0.124 -0.011,-0.241 0.053,-0.341l0.093,-0.145l0.121,0.123c0.005,0.005 0.488,0.484 0.915,0.403c0.034,-0.006 0.067,-0.017 0.099,-0.03c-0.165,-0.345 -0.598,-1.347 -0.377,-1.925c0.071,-0.187 0.201,-0.317 0.385,-0.386l0.787,-0.297l-0.651,0.533c-0.002,0.002 -0.093,0.084 -0.098,0.249c-0.004,0.146 0.059,0.384 0.363,0.718l1.043,-1.43l0.606,-0.498c-1.2,-0.614 -2.257,-1.155 -2.938,-1.474c-0.341,-0.16 -0.723,-0.198 -1.089,-0.112c-1.387,0.327 -4.852,1.161 -5.079,1.385c-1.299,1.274 0.198,7.911 0.198,7.911c2.01,0.237 2.21,-3.031 2.215,-4.238c0.001,-0.276 -0.063,-0.548 -0.188,-0.795l-0.607,-1.197l1.344,1.357l0.795,-0.135l0.565,-1.884l-0.148,1.906l1.765,0.704c0.02,-0.001 0.039,0 0.058,0c-0.113,-0.131 -0.2,-0.268 -0.232,-0.401Z" style="fill:#414042;fill-rule:nonzero;"/><path d="M38.81,13.297l-1.458,2.476l0.528,-2.07l-2.143,1.198l-1.436,2.389l0.396,-1.552l-7.972,5.682l-1.743,3.23l0.616,-2.415l-1.257,0.965l-0.981,2.046l0.418,-1.639l-1.279,1.052l-1.13,1.549c-0.881,-0.868 -0.368,-1.288 -0.368,-1.288c-0.872,0.329 0.126,2.237 0.126,2.237c-0.563,0.407 -1.294,-0.33 -1.294,-0.33c-0.304,0.473 1.052,1.279 1.052,1.279l25.958,-15.33c-2.134,-0.636 -8.033,0.522 -8.033,0.522Z" style="fill:#414042;fill-rule:nonzero;"/><path d="M27.061,27.7l-0.904,-0.048l0.695,0.177l-1.944,0.783l-1.755,0.231c0.249,0.724 0.592,0.722 0.696,0.702c0.014,-0.003 0.024,-0.006 0.027,-0.007l0.712,-0.26l-0.572,0.494c-0.09,0.077 -0.191,0.127 -0.301,0.148c-0.678,0.13 -1.473,-0.888 -1.731,-1.249c-0.379,0.304 -0.161,1.06 -0.158,1.068l0.049,0.165l-0.172,0.012c-0.118,0.008 -0.23,-0.032 -0.324,-0.117c-0.029,-0.026 -0.056,-0.057 -0.081,-0.09c0.021,0.268 0.033,0.557 0.035,0.869c0.013,1.861 -2.043,0.723 -3.431,0.857c-1.532,0.148 -2.067,1.431 -1.22,2.333c1.588,1.692 5.329,0.449 5.329,0.449c3.201,1.366 6.116,0.546 6.116,0.546l0.523,-1.513l1.827,-5.691c-0.439,-0.137 -1.004,-0.361 -1.645,-0.642l-1.769,0.782Z" style="fill:#414042;fill-rule:nonzero;"/></g><path d="M12.509,33.691c0.048,0.071 0.029,0.167 -0.042,0.214c-0.071,0.048 -0.167,0.029 -0.214,-0.042c-0.048,-0.071 -0.029,-0.167 0.042,-0.214c0.071,-0.048 0.167,-0.029 0.214,0.042Zm-1.131,0.503l1.293,0.017l0.433,-0.291l-0.41,-0.61l-1.317,0.884Z" style="fill:#414042;fill-rule:nonzero;"/><path d="M28.546,26.792c-0.24,-0.108 -0.49,-0.222 -0.746,-0.342l-0.607,-0.003l1.353,0.345Z" style="fill:#fbb040;fill-rule:nonzero;"/><path d="M46.968,12.805l-25.894,15.439c0,0 0.057,1.576 0.619,1.536c0,0 -0.297,-0.994 0.33,-1.294c0,0 1.197,1.79 1.903,1.182c0,0 -0.615,0.249 -0.954,-0.94l1.901,-0.25l1.536,-0.619l-1.639,-0.418l2.266,0.119l1.45,-0.641l-2.415,-0.616l3.67,0.018l8.807,-4.275l-1.552,-0.396l2.785,-0.116l2.079,-1.307l-2.07,-0.528l2.872,-0.094c0,0 3.843,-4.623 4.307,-6.801Z" style="fill:#414042;fill-rule:nonzero;"/></g></svg>